<mxfile host="app.diagrams.net" modified="2024-05-25T18:29:28.591Z" agent="Mozilla/5.0 (Windows NT 10.0; Win64; x64) AppleWebKit/537.36 (KHTML, like Gecko) Chrome/125.0.0.0 Safari/537.36" etag="u9MbaYi6ISYOURF8LUv1" version="24.4.8" type="github">
  <diagram name="Страница — 1" id="bzlAM76s72klUTDz6-Z3">
    <mxGraphModel dx="954" dy="558" grid="1" gridSize="10" guides="1" tooltips="1" connect="1" arrows="1" fold="1" page="1" pageScale="1" pageWidth="827" pageHeight="1169" math="0" shadow="0">
      <root>
        <mxCell id="0" />
        <mxCell id="1" parent="0" />
        <mxCell id="kVX8QzD0kMPj1XJyIQ5E-1" value="main()" style="rounded=1;whiteSpace=wrap;html=1;" parent="1" vertex="1">
          <mxGeometry x="370" y="40" width="80" height="40" as="geometry" />
        </mxCell>
        <mxCell id="kVX8QzD0kMPj1XJyIQ5E-2" value="from_str_to_float()" style="rounded=1;whiteSpace=wrap;html=1;" parent="1" vertex="1">
          <mxGeometry x="510" y="360" width="120" height="40" as="geometry" />
        </mxCell>
        <mxCell id="kVX8QzD0kMPj1XJyIQ5E-24" value="from_str_to_int()" style="rounded=1;whiteSpace=wrap;html=1;" parent="1" vertex="1">
          <mxGeometry x="580" y="440" width="120" height="40" as="geometry" />
        </mxCell>
        <mxCell id="kVX8QzD0kMPj1XJyIQ5E-25" value="from_str_to_int_mas()" style="rounded=1;whiteSpace=wrap;html=1;" parent="1" vertex="1">
          <mxGeometry x="650" y="360" width="120" height="40" as="geometry" />
        </mxCell>
        <mxCell id="kVX8QzD0kMPj1XJyIQ5E-26" value="fill_struct()" style="rounded=1;whiteSpace=wrap;html=1;" parent="1" vertex="1">
          <mxGeometry x="620" y="280" width="80" height="40" as="geometry" />
        </mxCell>
        <mxCell id="kVX8QzD0kMPj1XJyIQ5E-28" value="create_node()" style="rounded=1;whiteSpace=wrap;html=1;" parent="1" vertex="1">
          <mxGeometry x="720" y="200" width="80" height="40" as="geometry" />
        </mxCell>
        <mxCell id="kVX8QzD0kMPj1XJyIQ5E-29" value="help()" style="rounded=1;whiteSpace=wrap;html=1;" parent="1" vertex="1">
          <mxGeometry x="320" y="120" width="80" height="40" as="geometry" />
        </mxCell>
        <mxCell id="kVX8QzD0kMPj1XJyIQ5E-30" value="wait()" style="rounded=1;whiteSpace=wrap;html=1;" parent="1" vertex="1">
          <mxGeometry x="320" y="200" width="80" height="40" as="geometry" />
        </mxCell>
        <mxCell id="kVX8QzD0kMPj1XJyIQ5E-32" value="print_line()" style="rounded=1;whiteSpace=wrap;html=1;" parent="1" vertex="1">
          <mxGeometry x="270" y="320" width="80" height="40" as="geometry" />
        </mxCell>
        <mxCell id="kVX8QzD0kMPj1XJyIQ5E-33" value="print_head()" style="rounded=1;whiteSpace=wrap;html=1;" parent="1" vertex="1">
          <mxGeometry x="170" y="320" width="80" height="40" as="geometry" />
        </mxCell>
        <mxCell id="kVX8QzD0kMPj1XJyIQ5E-34" value="print_node()" style="rounded=1;whiteSpace=wrap;html=1;" parent="1" vertex="1">
          <mxGeometry x="70" y="320" width="80" height="40" as="geometry" />
        </mxCell>
        <mxCell id="kVX8QzD0kMPj1XJyIQ5E-35" value="print_one()" style="rounded=1;whiteSpace=wrap;html=1;" parent="1" vertex="1">
          <mxGeometry x="620" y="200" width="80" height="40" as="geometry" />
        </mxCell>
        <mxCell id="kVX8QzD0kMPj1XJyIQ5E-36" value="sorted()" style="rounded=1;whiteSpace=wrap;html=1;" parent="1" vertex="1">
          <mxGeometry x="20" y="200" width="80" height="40" as="geometry" />
        </mxCell>
        <mxCell id="kVX8QzD0kMPj1XJyIQ5E-37" value="find()" style="rounded=1;whiteSpace=wrap;html=1;" parent="1" vertex="1">
          <mxGeometry x="20" y="120" width="80" height="40" as="geometry" />
        </mxCell>
        <mxCell id="kVX8QzD0kMPj1XJyIQ5E-38" value="get_mas()" style="rounded=1;whiteSpace=wrap;html=1;" parent="1" vertex="1">
          <mxGeometry x="420" y="200" width="80" height="40" as="geometry" />
        </mxCell>
        <mxCell id="kVX8QzD0kMPj1XJyIQ5E-39" value="my_swap()" style="rounded=1;whiteSpace=wrap;html=1;" parent="1" vertex="1">
          <mxGeometry x="520" y="200" width="80" height="40" as="geometry" />
        </mxCell>
        <mxCell id="kVX8QzD0kMPj1XJyIQ5E-40" value="sort()" style="rounded=1;whiteSpace=wrap;html=1;" parent="1" vertex="1">
          <mxGeometry x="520" y="120" width="80" height="40" as="geometry" />
        </mxCell>
        <mxCell id="kVX8QzD0kMPj1XJyIQ5E-42" value="edit()" style="rounded=1;whiteSpace=wrap;html=1;" parent="1" vertex="1">
          <mxGeometry x="620" y="120" width="80" height="40" as="geometry" />
        </mxCell>
        <mxCell id="kVX8QzD0kMPj1XJyIQ5E-43" value="delete()" style="rounded=1;whiteSpace=wrap;html=1;" parent="1" vertex="1">
          <mxGeometry x="120" y="120" width="80" height="40" as="geometry" />
        </mxCell>
        <mxCell id="kVX8QzD0kMPj1XJyIQ5E-44" value="save()" style="rounded=1;whiteSpace=wrap;html=1;" parent="1" vertex="1">
          <mxGeometry x="220" y="120" width="80" height="40" as="geometry" />
        </mxCell>
        <mxCell id="kVX8QzD0kMPj1XJyIQ5E-45" value="" style="endArrow=classic;html=1;rounded=0;exitX=0.5;exitY=1;exitDx=0;exitDy=0;entryX=0.5;entryY=0;entryDx=0;entryDy=0;" parent="1" source="kVX8QzD0kMPj1XJyIQ5E-1" target="kVX8QzD0kMPj1XJyIQ5E-27" edge="1">
          <mxGeometry width="50" height="50" relative="1" as="geometry">
            <mxPoint x="360" y="220" as="sourcePoint" />
            <mxPoint x="410" y="130" as="targetPoint" />
          </mxGeometry>
        </mxCell>
        <mxCell id="kVX8QzD0kMPj1XJyIQ5E-46" value="" style="endArrow=classic;html=1;rounded=0;exitX=0.5;exitY=1;exitDx=0;exitDy=0;entryX=0.5;entryY=0;entryDx=0;entryDy=0;" parent="1" source="kVX8QzD0kMPj1XJyIQ5E-1" target="kVX8QzD0kMPj1XJyIQ5E-29" edge="1">
          <mxGeometry width="50" height="50" relative="1" as="geometry">
            <mxPoint x="410" y="110" as="sourcePoint" />
            <mxPoint x="410" y="160" as="targetPoint" />
          </mxGeometry>
        </mxCell>
        <mxCell id="kVX8QzD0kMPj1XJyIQ5E-47" value="" style="endArrow=classic;html=1;rounded=0;exitX=0.5;exitY=1;exitDx=0;exitDy=0;entryX=0.5;entryY=0;entryDx=0;entryDy=0;" parent="1" source="kVX8QzD0kMPj1XJyIQ5E-41" target="kVX8QzD0kMPj1XJyIQ5E-28" edge="1">
          <mxGeometry width="50" height="50" relative="1" as="geometry">
            <mxPoint x="570" y="180" as="sourcePoint" />
            <mxPoint x="570" y="230" as="targetPoint" />
            <Array as="points" />
          </mxGeometry>
        </mxCell>
        <mxCell id="kVX8QzD0kMPj1XJyIQ5E-48" value="" style="endArrow=classic;html=1;rounded=0;exitX=0.5;exitY=1;exitDx=0;exitDy=0;entryX=0.5;entryY=0;entryDx=0;entryDy=0;" parent="1" source="kVX8QzD0kMPj1XJyIQ5E-1" target="kVX8QzD0kMPj1XJyIQ5E-37" edge="1">
          <mxGeometry width="50" height="50" relative="1" as="geometry">
            <mxPoint x="530" y="30" as="sourcePoint" />
            <mxPoint x="530" y="80" as="targetPoint" />
          </mxGeometry>
        </mxCell>
        <mxCell id="kVX8QzD0kMPj1XJyIQ5E-49" value="" style="endArrow=classic;html=1;rounded=0;exitX=0.5;exitY=1;exitDx=0;exitDy=0;entryX=0.5;entryY=0;entryDx=0;entryDy=0;" parent="1" source="kVX8QzD0kMPj1XJyIQ5E-1" target="kVX8QzD0kMPj1XJyIQ5E-43" edge="1">
          <mxGeometry width="50" height="50" relative="1" as="geometry">
            <mxPoint x="510" y="10" as="sourcePoint" />
            <mxPoint x="510" y="60" as="targetPoint" />
          </mxGeometry>
        </mxCell>
        <mxCell id="kVX8QzD0kMPj1XJyIQ5E-50" value="" style="endArrow=classic;html=1;rounded=0;exitX=0.5;exitY=1;exitDx=0;exitDy=0;entryX=0.5;entryY=0;entryDx=0;entryDy=0;" parent="1" source="kVX8QzD0kMPj1XJyIQ5E-1" target="kVX8QzD0kMPj1XJyIQ5E-40" edge="1">
          <mxGeometry width="50" height="50" relative="1" as="geometry">
            <mxPoint x="530" y="10" as="sourcePoint" />
            <mxPoint x="530" y="60" as="targetPoint" />
          </mxGeometry>
        </mxCell>
        <mxCell id="kVX8QzD0kMPj1XJyIQ5E-51" value="" style="endArrow=classic;html=1;rounded=0;exitX=0.5;exitY=1;exitDx=0;exitDy=0;entryX=0.5;entryY=0;entryDx=0;entryDy=0;" parent="1" source="kVX8QzD0kMPj1XJyIQ5E-1" target="kVX8QzD0kMPj1XJyIQ5E-42" edge="1">
          <mxGeometry width="50" height="50" relative="1" as="geometry">
            <mxPoint x="480" y="40" as="sourcePoint" />
            <mxPoint x="510" y="70" as="targetPoint" />
          </mxGeometry>
        </mxCell>
        <mxCell id="kVX8QzD0kMPj1XJyIQ5E-52" value="" style="endArrow=classic;html=1;rounded=0;exitX=0.5;exitY=1;exitDx=0;exitDy=0;entryX=0.5;entryY=0;entryDx=0;entryDy=0;" parent="1" source="kVX8QzD0kMPj1XJyIQ5E-1" target="kVX8QzD0kMPj1XJyIQ5E-41" edge="1">
          <mxGeometry width="50" height="50" relative="1" as="geometry">
            <mxPoint x="630" y="30" as="sourcePoint" />
            <mxPoint x="630" y="80" as="targetPoint" />
          </mxGeometry>
        </mxCell>
        <mxCell id="kVX8QzD0kMPj1XJyIQ5E-53" value="" style="endArrow=classic;html=1;rounded=0;exitX=0.5;exitY=1;exitDx=0;exitDy=0;entryX=0.5;entryY=0;entryDx=0;entryDy=0;" parent="1" source="kVX8QzD0kMPj1XJyIQ5E-1" target="kVX8QzD0kMPj1XJyIQ5E-44" edge="1">
          <mxGeometry width="50" height="50" relative="1" as="geometry">
            <mxPoint x="620" y="40" as="sourcePoint" />
            <mxPoint x="620" y="90" as="targetPoint" />
          </mxGeometry>
        </mxCell>
        <mxCell id="kVX8QzD0kMPj1XJyIQ5E-54" value="" style="endArrow=classic;html=1;rounded=0;exitX=0.5;exitY=1;exitDx=0;exitDy=0;entryX=0.5;entryY=0;entryDx=0;entryDy=0;" parent="1" source="kVX8QzD0kMPj1XJyIQ5E-41" target="kVX8QzD0kMPj1XJyIQ5E-28" edge="1">
          <mxGeometry width="50" height="50" relative="1" as="geometry">
            <mxPoint x="633" y="440" as="sourcePoint" />
            <mxPoint x="633" y="490" as="targetPoint" />
          </mxGeometry>
        </mxCell>
        <mxCell id="kVX8QzD0kMPj1XJyIQ5E-55" value="" style="endArrow=classic;html=1;rounded=0;exitX=0.5;exitY=1;exitDx=0;exitDy=0;entryX=0.5;entryY=0;entryDx=0;entryDy=0;" parent="1" source="kVX8QzD0kMPj1XJyIQ5E-37" target="kVX8QzD0kMPj1XJyIQ5E-36" edge="1">
          <mxGeometry width="50" height="50" relative="1" as="geometry">
            <mxPoint x="243" y="370" as="sourcePoint" />
            <mxPoint x="243" y="420" as="targetPoint" />
          </mxGeometry>
        </mxCell>
        <mxCell id="kVX8QzD0kMPj1XJyIQ5E-57" value="" style="endArrow=classic;html=1;rounded=0;exitX=0.5;exitY=1;exitDx=0;exitDy=0;entryX=0.5;entryY=0;entryDx=0;entryDy=0;" parent="1" source="kVX8QzD0kMPj1XJyIQ5E-40" target="kVX8QzD0kMPj1XJyIQ5E-38" edge="1">
          <mxGeometry width="50" height="50" relative="1" as="geometry">
            <mxPoint x="333" y="420" as="sourcePoint" />
            <mxPoint x="333" y="470" as="targetPoint" />
          </mxGeometry>
        </mxCell>
        <mxCell id="kVX8QzD0kMPj1XJyIQ5E-58" value="" style="endArrow=classic;html=1;rounded=0;exitX=0.5;exitY=1;exitDx=0;exitDy=0;entryX=0.5;entryY=0;entryDx=0;entryDy=0;" parent="1" source="kVX8QzD0kMPj1XJyIQ5E-40" target="kVX8QzD0kMPj1XJyIQ5E-39" edge="1">
          <mxGeometry width="50" height="50" relative="1" as="geometry">
            <mxPoint x="413" y="400" as="sourcePoint" />
            <mxPoint x="413" y="450" as="targetPoint" />
          </mxGeometry>
        </mxCell>
        <mxCell id="kVX8QzD0kMPj1XJyIQ5E-59" value="" style="endArrow=classic;html=1;rounded=0;exitX=0.5;exitY=1;exitDx=0;exitDy=0;entryX=0.5;entryY=0;entryDx=0;entryDy=0;" parent="1" source="kVX8QzD0kMPj1XJyIQ5E-25" target="kVX8QzD0kMPj1XJyIQ5E-24" edge="1">
          <mxGeometry width="50" height="50" relative="1" as="geometry">
            <mxPoint x="620" y="440" as="sourcePoint" />
            <mxPoint x="620" y="490" as="targetPoint" />
          </mxGeometry>
        </mxCell>
        <mxCell id="kVX8QzD0kMPj1XJyIQ5E-60" value="" style="endArrow=classic;html=1;rounded=0;exitX=0.5;exitY=1;exitDx=0;exitDy=0;entryX=0.5;entryY=0;entryDx=0;entryDy=0;" parent="1" source="kVX8QzD0kMPj1XJyIQ5E-26" target="kVX8QzD0kMPj1XJyIQ5E-25" edge="1">
          <mxGeometry width="50" height="50" relative="1" as="geometry">
            <mxPoint x="730" y="350" as="sourcePoint" />
            <mxPoint x="730" y="400" as="targetPoint" />
          </mxGeometry>
        </mxCell>
        <mxCell id="kVX8QzD0kMPj1XJyIQ5E-61" value="" style="endArrow=classic;html=1;rounded=0;exitX=0.5;exitY=1;exitDx=0;exitDy=0;entryX=0.5;entryY=0;entryDx=0;entryDy=0;" parent="1" source="kVX8QzD0kMPj1XJyIQ5E-26" target="kVX8QzD0kMPj1XJyIQ5E-24" edge="1">
          <mxGeometry width="50" height="50" relative="1" as="geometry">
            <mxPoint x="940" y="390" as="sourcePoint" />
            <mxPoint x="970" y="490" as="targetPoint" />
            <Array as="points">
              <mxPoint x="780" y="360" />
              <mxPoint x="780" y="400" />
            </Array>
          </mxGeometry>
        </mxCell>
        <mxCell id="kVX8QzD0kMPj1XJyIQ5E-62" value="" style="endArrow=classic;html=1;rounded=0;exitX=0.5;exitY=1;exitDx=0;exitDy=0;entryX=0.5;entryY=0;entryDx=0;entryDy=0;" parent="1" source="kVX8QzD0kMPj1XJyIQ5E-37" target="kVX8QzD0kMPj1XJyIQ5E-24" edge="1">
          <mxGeometry width="50" height="50" relative="1" as="geometry">
            <mxPoint x="263" y="440" as="sourcePoint" />
            <mxPoint x="263" y="490" as="targetPoint" />
            <Array as="points">
              <mxPoint x="10" y="200" />
              <mxPoint x="10" y="360" />
            </Array>
          </mxGeometry>
        </mxCell>
        <mxCell id="kVX8QzD0kMPj1XJyIQ5E-63" value="" style="endArrow=classic;html=1;rounded=0;exitX=0.5;exitY=1;exitDx=0;exitDy=0;entryX=0.5;entryY=0;entryDx=0;entryDy=0;" parent="1" source="kVX8QzD0kMPj1XJyIQ5E-40" target="kVX8QzD0kMPj1XJyIQ5E-24" edge="1">
          <mxGeometry width="50" height="50" relative="1" as="geometry">
            <mxPoint x="423" y="470" as="sourcePoint" />
            <mxPoint x="423" y="520" as="targetPoint" />
            <Array as="points">
              <mxPoint x="810" y="200" />
              <mxPoint x="810" y="400" />
            </Array>
          </mxGeometry>
        </mxCell>
        <mxCell id="kVX8QzD0kMPj1XJyIQ5E-64" value="" style="endArrow=classic;html=1;rounded=0;exitX=0.5;exitY=1;exitDx=0;exitDy=0;entryX=0.5;entryY=0;entryDx=0;entryDy=0;" parent="1" source="kVX8QzD0kMPj1XJyIQ5E-42" target="kVX8QzD0kMPj1XJyIQ5E-24" edge="1">
          <mxGeometry width="50" height="50" relative="1" as="geometry">
            <mxPoint x="183" y="380" as="sourcePoint" />
            <mxPoint x="183" y="430" as="targetPoint" />
            <Array as="points">
              <mxPoint x="810" y="200" />
              <mxPoint x="810" y="400" />
            </Array>
          </mxGeometry>
        </mxCell>
        <mxCell id="kVX8QzD0kMPj1XJyIQ5E-65" value="" style="endArrow=classic;html=1;rounded=0;exitX=0.5;exitY=1;exitDx=0;exitDy=0;entryX=0.5;entryY=0;entryDx=0;entryDy=0;" parent="1" source="kVX8QzD0kMPj1XJyIQ5E-43" target="kVX8QzD0kMPj1XJyIQ5E-24" edge="1">
          <mxGeometry width="50" height="50" relative="1" as="geometry">
            <mxPoint x="193" y="420" as="sourcePoint" />
            <mxPoint x="193" y="470" as="targetPoint" />
            <Array as="points">
              <mxPoint x="10" y="200" />
              <mxPoint x="10" y="360" />
            </Array>
          </mxGeometry>
        </mxCell>
        <mxCell id="kVX8QzD0kMPj1XJyIQ5E-66" value="" style="endArrow=classic;html=1;rounded=0;exitX=0.5;exitY=1;exitDx=0;exitDy=0;entryX=0.5;entryY=0;entryDx=0;entryDy=0;" parent="1" source="kVX8QzD0kMPj1XJyIQ5E-26" target="kVX8QzD0kMPj1XJyIQ5E-2" edge="1">
          <mxGeometry width="50" height="50" relative="1" as="geometry">
            <mxPoint x="610" y="430" as="sourcePoint" />
            <mxPoint x="610" y="480" as="targetPoint" />
          </mxGeometry>
        </mxCell>
        <mxCell id="kVX8QzD0kMPj1XJyIQ5E-67" value="" style="endArrow=classic;html=1;rounded=0;exitX=0.5;exitY=1;exitDx=0;exitDy=0;entryX=0.5;entryY=0;entryDx=0;entryDy=0;" parent="1" source="kVX8QzD0kMPj1XJyIQ5E-37" target="kVX8QzD0kMPj1XJyIQ5E-2" edge="1">
          <mxGeometry width="50" height="50" relative="1" as="geometry">
            <mxPoint x="293" y="460" as="sourcePoint" />
            <mxPoint x="293" y="510" as="targetPoint" />
            <Array as="points">
              <mxPoint x="280" y="200" />
              <mxPoint x="280" y="240" />
            </Array>
          </mxGeometry>
        </mxCell>
        <mxCell id="kVX8QzD0kMPj1XJyIQ5E-68" value="" style="endArrow=classic;html=1;rounded=0;exitX=0.5;exitY=1;exitDx=0;exitDy=0;entryX=0.5;entryY=0;entryDx=0;entryDy=0;" parent="1" source="kVX8QzD0kMPj1XJyIQ5E-42" target="kVX8QzD0kMPj1XJyIQ5E-2" edge="1">
          <mxGeometry width="50" height="50" relative="1" as="geometry">
            <mxPoint x="253" y="450" as="sourcePoint" />
            <mxPoint x="253" y="500" as="targetPoint" />
            <Array as="points">
              <mxPoint x="610" y="200" />
              <mxPoint x="610" y="240" />
            </Array>
          </mxGeometry>
        </mxCell>
        <mxCell id="kVX8QzD0kMPj1XJyIQ5E-69" value="" style="endArrow=classic;html=1;rounded=0;exitX=0.5;exitY=1;exitDx=0;exitDy=0;entryX=0.5;entryY=0;entryDx=0;entryDy=0;" parent="1" source="kVX8QzD0kMPj1XJyIQ5E-43" target="kVX8QzD0kMPj1XJyIQ5E-2" edge="1">
          <mxGeometry width="50" height="50" relative="1" as="geometry">
            <mxPoint x="213" y="440" as="sourcePoint" />
            <mxPoint x="213" y="490" as="targetPoint" />
            <Array as="points">
              <mxPoint x="280" y="200" />
              <mxPoint x="280" y="240" />
            </Array>
          </mxGeometry>
        </mxCell>
        <mxCell id="kVX8QzD0kMPj1XJyIQ5E-70" value="" style="endArrow=classic;html=1;rounded=0;exitX=0.5;exitY=1;exitDx=0;exitDy=0;entryX=0.5;entryY=0;entryDx=0;entryDy=0;" parent="1" source="kVX8QzD0kMPj1XJyIQ5E-28" target="kVX8QzD0kMPj1XJyIQ5E-26" edge="1">
          <mxGeometry width="50" height="50" relative="1" as="geometry">
            <mxPoint x="560" y="420" as="sourcePoint" />
            <mxPoint x="560" y="470" as="targetPoint" />
          </mxGeometry>
        </mxCell>
        <mxCell id="kVX8QzD0kMPj1XJyIQ5E-71" value="" style="endArrow=classic;html=1;rounded=0;exitX=0.5;exitY=1;exitDx=0;exitDy=0;entryX=0.5;entryY=0;entryDx=0;entryDy=0;" parent="1" source="kVX8QzD0kMPj1XJyIQ5E-37" target="kVX8QzD0kMPj1XJyIQ5E-30" edge="1">
          <mxGeometry width="50" height="50" relative="1" as="geometry">
            <mxPoint x="83" y="310" as="sourcePoint" />
            <mxPoint x="83" y="360" as="targetPoint" />
          </mxGeometry>
        </mxCell>
        <mxCell id="kVX8QzD0kMPj1XJyIQ5E-73" value="" style="endArrow=classic;html=1;rounded=0;exitX=0.5;exitY=1;exitDx=0;exitDy=0;entryX=0.5;entryY=0;entryDx=0;entryDy=0;" parent="1" source="kVX8QzD0kMPj1XJyIQ5E-41" target="kVX8QzD0kMPj1XJyIQ5E-30" edge="1">
          <mxGeometry width="50" height="50" relative="1" as="geometry">
            <mxPoint x="153" y="390" as="sourcePoint" />
            <mxPoint x="153" y="440" as="targetPoint" />
          </mxGeometry>
        </mxCell>
        <mxCell id="kVX8QzD0kMPj1XJyIQ5E-74" value="" style="endArrow=classic;html=1;rounded=0;exitX=0.5;exitY=1;exitDx=0;exitDy=0;entryX=0.5;entryY=0;entryDx=0;entryDy=0;" parent="1" source="kVX8QzD0kMPj1XJyIQ5E-42" target="kVX8QzD0kMPj1XJyIQ5E-30" edge="1">
          <mxGeometry width="50" height="50" relative="1" as="geometry">
            <mxPoint x="283" y="410" as="sourcePoint" />
            <mxPoint x="283" y="460" as="targetPoint" />
          </mxGeometry>
        </mxCell>
        <mxCell id="kVX8QzD0kMPj1XJyIQ5E-75" value="" style="endArrow=classic;html=1;rounded=0;exitX=0.5;exitY=1;exitDx=0;exitDy=0;entryX=0.5;entryY=0;entryDx=0;entryDy=0;" parent="1" source="kVX8QzD0kMPj1XJyIQ5E-43" target="kVX8QzD0kMPj1XJyIQ5E-30" edge="1">
          <mxGeometry width="50" height="50" relative="1" as="geometry">
            <mxPoint x="233" y="440" as="sourcePoint" />
            <mxPoint x="233" y="490" as="targetPoint" />
          </mxGeometry>
        </mxCell>
        <mxCell id="kVX8QzD0kMPj1XJyIQ5E-76" value="" style="endArrow=classic;html=1;rounded=0;exitX=0.5;exitY=1;exitDx=0;exitDy=0;entryX=0.5;entryY=0;entryDx=0;entryDy=0;" parent="1" source="kVX8QzD0kMPj1XJyIQ5E-44" target="kVX8QzD0kMPj1XJyIQ5E-30" edge="1">
          <mxGeometry width="50" height="50" relative="1" as="geometry">
            <mxPoint x="163" y="440" as="sourcePoint" />
            <mxPoint x="163" y="490" as="targetPoint" />
          </mxGeometry>
        </mxCell>
        <mxCell id="kVX8QzD0kMPj1XJyIQ5E-77" value="" style="endArrow=classic;html=1;rounded=0;exitX=0.5;exitY=1;exitDx=0;exitDy=0;entryX=0.5;entryY=0;entryDx=0;entryDy=0;" parent="1" source="kVX8QzD0kMPj1XJyIQ5E-35" target="kVX8QzD0kMPj1XJyIQ5E-32" edge="1">
          <mxGeometry width="50" height="50" relative="1" as="geometry">
            <mxPoint x="180" y="510" as="sourcePoint" />
            <mxPoint x="180" y="560" as="targetPoint" />
          </mxGeometry>
        </mxCell>
        <mxCell id="kVX8QzD0kMPj1XJyIQ5E-78" value="" style="endArrow=classic;html=1;rounded=0;exitX=0.5;exitY=1;exitDx=0;exitDy=0;entryX=0.5;entryY=0;entryDx=0;entryDy=0;" parent="1" source="kVX8QzD0kMPj1XJyIQ5E-31" target="kVX8QzD0kMPj1XJyIQ5E-32" edge="1">
          <mxGeometry width="50" height="50" relative="1" as="geometry">
            <mxPoint x="370" y="500" as="sourcePoint" />
            <mxPoint x="370" y="550" as="targetPoint" />
          </mxGeometry>
        </mxCell>
        <mxCell id="kVX8QzD0kMPj1XJyIQ5E-79" value="" style="endArrow=classic;html=1;rounded=0;exitX=0.5;exitY=1;exitDx=0;exitDy=0;entryX=0.5;entryY=0;entryDx=0;entryDy=0;" parent="1" source="kVX8QzD0kMPj1XJyIQ5E-35" target="kVX8QzD0kMPj1XJyIQ5E-33" edge="1">
          <mxGeometry width="50" height="50" relative="1" as="geometry">
            <mxPoint x="240" y="490" as="sourcePoint" />
            <mxPoint x="240" y="540" as="targetPoint" />
          </mxGeometry>
        </mxCell>
        <mxCell id="kVX8QzD0kMPj1XJyIQ5E-80" value="" style="endArrow=classic;html=1;rounded=0;exitX=0.5;exitY=1;exitDx=0;exitDy=0;entryX=0.5;entryY=0;entryDx=0;entryDy=0;" parent="1" source="kVX8QzD0kMPj1XJyIQ5E-35" target="kVX8QzD0kMPj1XJyIQ5E-34" edge="1">
          <mxGeometry width="50" height="50" relative="1" as="geometry">
            <mxPoint x="350" y="630" as="sourcePoint" />
            <mxPoint x="350" y="680" as="targetPoint" />
          </mxGeometry>
        </mxCell>
        <mxCell id="kVX8QzD0kMPj1XJyIQ5E-81" value="" style="endArrow=classic;html=1;rounded=0;exitX=0.5;exitY=1;exitDx=0;exitDy=0;entryX=0.5;entryY=0;entryDx=0;entryDy=0;" parent="1" source="kVX8QzD0kMPj1XJyIQ5E-31" target="kVX8QzD0kMPj1XJyIQ5E-33" edge="1">
          <mxGeometry width="50" height="50" relative="1" as="geometry">
            <mxPoint x="310" y="655" as="sourcePoint" />
            <mxPoint x="310" y="705" as="targetPoint" />
          </mxGeometry>
        </mxCell>
        <mxCell id="kVX8QzD0kMPj1XJyIQ5E-82" value="" style="endArrow=classic;html=1;rounded=0;exitX=0.5;exitY=1;exitDx=0;exitDy=0;entryX=0.5;entryY=0;entryDx=0;entryDy=0;" parent="1" source="kVX8QzD0kMPj1XJyIQ5E-31" target="kVX8QzD0kMPj1XJyIQ5E-34" edge="1">
          <mxGeometry width="50" height="50" relative="1" as="geometry">
            <mxPoint x="360" y="595" as="sourcePoint" />
            <mxPoint x="360" y="645" as="targetPoint" />
          </mxGeometry>
        </mxCell>
        <mxCell id="kVX8QzD0kMPj1XJyIQ5E-83" value="" style="endArrow=classic;html=1;rounded=0;exitX=0.5;exitY=1;exitDx=0;exitDy=0;entryX=0.5;entryY=0;entryDx=0;entryDy=0;" parent="1" source="kVX8QzD0kMPj1XJyIQ5E-37" target="kVX8QzD0kMPj1XJyIQ5E-32" edge="1">
          <mxGeometry width="50" height="50" relative="1" as="geometry">
            <mxPoint x="373" y="390" as="sourcePoint" />
            <mxPoint x="373" y="440" as="targetPoint" />
            <Array as="points">
              <mxPoint x="120" y="200" />
              <mxPoint x="120" y="240" />
            </Array>
          </mxGeometry>
        </mxCell>
        <mxCell id="kVX8QzD0kMPj1XJyIQ5E-84" value="" style="endArrow=classic;html=1;rounded=0;exitX=0.5;exitY=1;exitDx=0;exitDy=0;entryX=0.5;entryY=0;entryDx=0;entryDy=0;" parent="1" source="kVX8QzD0kMPj1XJyIQ5E-43" target="kVX8QzD0kMPj1XJyIQ5E-32" edge="1">
          <mxGeometry width="50" height="50" relative="1" as="geometry">
            <mxPoint x="183" y="410" as="sourcePoint" />
            <mxPoint x="183" y="460" as="targetPoint" />
            <Array as="points">
              <mxPoint x="160" y="240" />
            </Array>
          </mxGeometry>
        </mxCell>
        <mxCell id="kVX8QzD0kMPj1XJyIQ5E-85" value="" style="endArrow=classic;html=1;rounded=0;exitX=0.5;exitY=1;exitDx=0;exitDy=0;entryX=0.5;entryY=0;entryDx=0;entryDy=0;" parent="1" source="kVX8QzD0kMPj1XJyIQ5E-43" target="kVX8QzD0kMPj1XJyIQ5E-33" edge="1">
          <mxGeometry width="50" height="50" relative="1" as="geometry">
            <mxPoint x="323" y="460" as="sourcePoint" />
            <mxPoint x="323" y="510" as="targetPoint" />
            <Array as="points">
              <mxPoint x="160" y="240" />
            </Array>
          </mxGeometry>
        </mxCell>
        <mxCell id="kVX8QzD0kMPj1XJyIQ5E-86" value="" style="endArrow=classic;html=1;rounded=0;exitX=0.5;exitY=1;exitDx=0;exitDy=0;entryX=0.5;entryY=0;entryDx=0;entryDy=0;" parent="1" source="kVX8QzD0kMPj1XJyIQ5E-37" target="kVX8QzD0kMPj1XJyIQ5E-33" edge="1">
          <mxGeometry width="50" height="50" relative="1" as="geometry">
            <mxPoint x="273" y="480" as="sourcePoint" />
            <mxPoint x="273" y="530" as="targetPoint" />
            <Array as="points">
              <mxPoint x="120" y="200" />
              <mxPoint x="120" y="240" />
            </Array>
          </mxGeometry>
        </mxCell>
        <mxCell id="kVX8QzD0kMPj1XJyIQ5E-87" value="" style="endArrow=classic;html=1;rounded=0;exitX=0.5;exitY=1;exitDx=0;exitDy=0;entryX=0.5;entryY=0;entryDx=0;entryDy=0;" parent="1" source="kVX8QzD0kMPj1XJyIQ5E-36" target="kVX8QzD0kMPj1XJyIQ5E-34" edge="1">
          <mxGeometry width="50" height="50" relative="1" as="geometry">
            <mxPoint x="550" y="400" as="sourcePoint" />
            <mxPoint x="600" y="560" as="targetPoint" />
          </mxGeometry>
        </mxCell>
        <mxCell id="kVX8QzD0kMPj1XJyIQ5E-88" value="" style="endArrow=classic;html=1;rounded=0;exitX=0.5;exitY=1;exitDx=0;exitDy=0;entryX=0.5;entryY=0;entryDx=0;entryDy=0;" parent="1" source="kVX8QzD0kMPj1XJyIQ5E-37" target="kVX8QzD0kMPj1XJyIQ5E-34" edge="1">
          <mxGeometry width="50" height="50" relative="1" as="geometry">
            <mxPoint x="163" y="430" as="sourcePoint" />
            <mxPoint x="163" y="480" as="targetPoint" />
            <Array as="points">
              <mxPoint x="120" y="200" />
              <mxPoint x="120" y="240" />
            </Array>
          </mxGeometry>
        </mxCell>
        <mxCell id="kVX8QzD0kMPj1XJyIQ5E-89" value="" style="endArrow=classic;html=1;rounded=0;exitX=0.5;exitY=1;exitDx=0;exitDy=0;entryX=0.5;entryY=0;entryDx=0;entryDy=0;" parent="1" source="kVX8QzD0kMPj1XJyIQ5E-31" target="kVX8QzD0kMPj1XJyIQ5E-34" edge="1">
          <mxGeometry width="50" height="50" relative="1" as="geometry">
            <mxPoint x="373" y="490" as="sourcePoint" />
            <mxPoint x="373" y="540" as="targetPoint" />
          </mxGeometry>
        </mxCell>
        <mxCell id="kVX8QzD0kMPj1XJyIQ5E-90" value="" style="endArrow=classic;html=1;rounded=0;exitX=0.5;exitY=1;exitDx=0;exitDy=0;entryX=0.5;entryY=0;entryDx=0;entryDy=0;" parent="1" source="kVX8QzD0kMPj1XJyIQ5E-42" target="kVX8QzD0kMPj1XJyIQ5E-35" edge="1">
          <mxGeometry width="50" height="50" relative="1" as="geometry">
            <mxPoint x="63" y="400" as="sourcePoint" />
            <mxPoint x="63" y="450" as="targetPoint" />
          </mxGeometry>
        </mxCell>
        <mxCell id="kVX8QzD0kMPj1XJyIQ5E-91" value="" style="endArrow=classic;html=1;rounded=0;exitX=0.5;exitY=1;exitDx=0;exitDy=0;entryX=0.5;entryY=0;entryDx=0;entryDy=0;" parent="1" source="kVX8QzD0kMPj1XJyIQ5E-1" target="kVX8QzD0kMPj1XJyIQ5E-31" edge="1">
          <mxGeometry width="50" height="50" relative="1" as="geometry">
            <mxPoint x="120" y="330" as="sourcePoint" />
            <mxPoint x="120" y="380" as="targetPoint" />
            <Array as="points">
              <mxPoint x="310" y="120" />
              <mxPoint x="310" y="160" />
            </Array>
          </mxGeometry>
        </mxCell>
        <mxCell id="kVX8QzD0kMPj1XJyIQ5E-92" value="" style="endArrow=classic;html=1;rounded=0;exitX=0.5;exitY=1;exitDx=0;exitDy=0;entryX=0.5;entryY=0;entryDx=0;entryDy=0;" parent="1" source="kVX8QzD0kMPj1XJyIQ5E-37" target="kVX8QzD0kMPj1XJyIQ5E-31" edge="1">
          <mxGeometry width="50" height="50" relative="1" as="geometry">
            <mxPoint x="123" y="400" as="sourcePoint" />
            <mxPoint x="123" y="450" as="targetPoint" />
          </mxGeometry>
        </mxCell>
        <mxCell id="kVX8QzD0kMPj1XJyIQ5E-93" value="" style="endArrow=classic;html=1;rounded=0;exitX=0.5;exitY=1;exitDx=0;exitDy=0;entryX=0.5;entryY=0;entryDx=0;entryDy=0;" parent="1" source="kVX8QzD0kMPj1XJyIQ5E-40" target="kVX8QzD0kMPj1XJyIQ5E-31" edge="1">
          <mxGeometry width="50" height="50" relative="1" as="geometry">
            <mxPoint x="153" y="470" as="sourcePoint" />
            <mxPoint x="153" y="520" as="targetPoint" />
          </mxGeometry>
        </mxCell>
        <mxCell id="kVX8QzD0kMPj1XJyIQ5E-94" value="" style="endArrow=classic;html=1;rounded=0;exitX=0.5;exitY=1;exitDx=0;exitDy=0;entryX=0.5;entryY=0;entryDx=0;entryDy=0;" parent="1" source="kVX8QzD0kMPj1XJyIQ5E-41" target="kVX8QzD0kMPj1XJyIQ5E-31" edge="1">
          <mxGeometry width="50" height="50" relative="1" as="geometry">
            <mxPoint x="133" y="430" as="sourcePoint" />
            <mxPoint x="133" y="480" as="targetPoint" />
          </mxGeometry>
        </mxCell>
        <mxCell id="kVX8QzD0kMPj1XJyIQ5E-95" value="" style="endArrow=classic;html=1;rounded=0;exitX=0.5;exitY=1;exitDx=0;exitDy=0;entryX=0.5;entryY=0;entryDx=0;entryDy=0;" parent="1" source="kVX8QzD0kMPj1XJyIQ5E-42" target="kVX8QzD0kMPj1XJyIQ5E-31" edge="1">
          <mxGeometry width="50" height="50" relative="1" as="geometry">
            <mxPoint x="83" y="420" as="sourcePoint" />
            <mxPoint x="83" y="470" as="targetPoint" />
          </mxGeometry>
        </mxCell>
        <mxCell id="kVX8QzD0kMPj1XJyIQ5E-96" value="" style="endArrow=classic;html=1;rounded=0;exitX=0.5;exitY=1;exitDx=0;exitDy=0;entryX=0.5;entryY=0;entryDx=0;entryDy=0;" parent="1" source="kVX8QzD0kMPj1XJyIQ5E-43" target="kVX8QzD0kMPj1XJyIQ5E-31" edge="1">
          <mxGeometry width="50" height="50" relative="1" as="geometry">
            <mxPoint x="113" y="460" as="sourcePoint" />
            <mxPoint x="113" y="510" as="targetPoint" />
          </mxGeometry>
        </mxCell>
        <mxCell id="kVX8QzD0kMPj1XJyIQ5E-97" value="" style="endArrow=classic;html=1;rounded=0;exitX=0.5;exitY=1;exitDx=0;exitDy=0;entryX=0.5;entryY=0;entryDx=0;entryDy=0;" parent="1" source="kVX8QzD0kMPj1XJyIQ5E-44" target="kVX8QzD0kMPj1XJyIQ5E-31" edge="1">
          <mxGeometry width="50" height="50" relative="1" as="geometry">
            <mxPoint x="113" y="430" as="sourcePoint" />
            <mxPoint x="113" y="480" as="targetPoint" />
          </mxGeometry>
        </mxCell>
        <mxCell id="kVX8QzD0kMPj1XJyIQ5E-98" value="" style="endArrow=classic;html=1;rounded=0;exitX=0.5;exitY=1;exitDx=0;exitDy=0;entryX=0.5;entryY=0;entryDx=0;entryDy=0;" parent="1" source="kVX8QzD0kMPj1XJyIQ5E-1" target="kVX8QzD0kMPj1XJyIQ5E-27" edge="1">
          <mxGeometry width="50" height="50" relative="1" as="geometry">
            <mxPoint x="410" y="80" as="sourcePoint" />
            <mxPoint x="563" y="240" as="targetPoint" />
          </mxGeometry>
        </mxCell>
        <mxCell id="kVX8QzD0kMPj1XJyIQ5E-27" value="make_list()" style="rounded=1;whiteSpace=wrap;html=1;" parent="1" vertex="1">
          <mxGeometry x="420" y="120" width="80" height="40" as="geometry" />
        </mxCell>
        <mxCell id="kVX8QzD0kMPj1XJyIQ5E-99" value="" style="endArrow=classic;html=1;rounded=0;exitX=0.5;exitY=1;exitDx=0;exitDy=0;entryX=0.5;entryY=0;entryDx=0;entryDy=0;" parent="1" source="kVX8QzD0kMPj1XJyIQ5E-1" target="kVX8QzD0kMPj1XJyIQ5E-41" edge="1">
          <mxGeometry width="50" height="50" relative="1" as="geometry">
            <mxPoint x="410" y="80" as="sourcePoint" />
            <mxPoint x="1990" y="320" as="targetPoint" />
            <Array as="points" />
          </mxGeometry>
        </mxCell>
        <mxCell id="kVX8QzD0kMPj1XJyIQ5E-41" value="add()" style="rounded=1;whiteSpace=wrap;html=1;" parent="1" vertex="1">
          <mxGeometry x="720" y="120" width="80" height="40" as="geometry" />
        </mxCell>
        <mxCell id="kVX8QzD0kMPj1XJyIQ5E-100" value="" style="endArrow=classic;html=1;rounded=0;exitX=0.5;exitY=1;exitDx=0;exitDy=0;entryX=0.5;entryY=0;entryDx=0;entryDy=0;" parent="1" source="kVX8QzD0kMPj1XJyIQ5E-43" target="kVX8QzD0kMPj1XJyIQ5E-31" edge="1">
          <mxGeometry width="50" height="50" relative="1" as="geometry">
            <mxPoint x="160" y="160" as="sourcePoint" />
            <mxPoint x="400" y="360" as="targetPoint" />
          </mxGeometry>
        </mxCell>
        <mxCell id="kVX8QzD0kMPj1XJyIQ5E-31" value="print()" style="rounded=1;whiteSpace=wrap;html=1;" parent="1" vertex="1">
          <mxGeometry x="180" y="200" width="80" height="40" as="geometry" />
        </mxCell>
        <mxCell id="kVX8QzD0kMPj1XJyIQ5E-101" value="" style="endArrow=classic;html=1;rounded=0;entryX=0.5;entryY=0;entryDx=0;entryDy=0;exitX=0.5;exitY=1;exitDx=0;exitDy=0;" parent="1" source="kVX8QzD0kMPj1XJyIQ5E-43" target="kVX8QzD0kMPj1XJyIQ5E-34" edge="1">
          <mxGeometry width="50" height="50" relative="1" as="geometry">
            <mxPoint x="140" y="200" as="sourcePoint" />
            <mxPoint x="150" y="530" as="targetPoint" />
            <Array as="points">
              <mxPoint x="160" y="240" />
            </Array>
          </mxGeometry>
        </mxCell>
      </root>
    </mxGraphModel>
  </diagram>
</mxfile>
